<?xml version="1.0" encoding="utf-8"?>
<svg viewBox="0 0 2800 1440" xmlns="http://www.w3.org/2000/svg" xmlns:bx="https://boxy-svg.com">
  <defs>
    <linearGradient id="linear-gradient" x1="-561.4" y1="51.73" x2="-561.4" y2="52.73" gradientTransform="translate(11800 -776) scale(21 15)" gradientUnits="userSpaceOnUse">
      <stop offset="0" stop-color="#fff"/>
      <stop offset="1" stop-color="#f0f0f0"/>
    </linearGradient>
    <linearGradient id="linear-gradient-2" x1="-561.4" y1="51.73" x2="-561.4" y2="52.67" gradientTransform="translate(11800 -776) scale(21 15)" gradientUnits="userSpaceOnUse">
      <stop offset="0" stop-color="#e1244a"/>
      <stop offset="1" stop-color="#be1134"/>
    </linearGradient>
    <linearGradient id="linear-gradient-3" x1="-540.33" y1="97" x2="-540.33" y2="98.08" gradientTransform="translate(6490 -776) scale(12 8)" gradientUnits="userSpaceOnUse">
      <stop offset="0" stop-color="#0c3f8e"/>
      <stop offset="1" stop-color="#032a67"/>
    </linearGradient>
    <linearGradient id="linear-gradient-4" x1="-515.29" y1="129.39" x2="-515.29" y2="130.39" gradientTransform="matrix(5.961712, 0, 0, 6, 3078.042255, -774.970657)" gradientUnits="userSpaceOnUse">
      <stop offset="0" stop-color="#ffd34f"/>
      <stop offset="1" stop-color="#ffcb2f"/>
    </linearGradient>
  </defs>
  <title>my</title>
  <g id="Symbols" transform="matrix(133.333328, 0, 0, 93.333336, 0, 0)" style="" bx:origin="1 1">
    <g id="MY">
      <rect id="FlagBackground" width="21" height="15" fill="url(#linear-gradient)"/>
      <path id="Rectangle-537" d="M10,0H21V1.1H10Zm0,2.2H21V3.3H10Zm0,2.1H21V5.4H10Zm0,2.2H21V7.6H10ZM0,8.7H21V9.8H0Zm0,2.1H21v1.1H0ZM0,13H21v1.1H0Z" fill-rule="evenodd" fill="url(#linear-gradient-2)"/>
      <rect id="Rectangle-1568" width="12" height="8.7" fill="url(#linear-gradient-3)"/>
      <path id="Oval-12" d="M 6.8 2.029 C 6.584 1.915 6.356 1.848 6.124 1.829 C 5.096 1.85 4.266 2.957 4.25 4.329 C 4.266 5.701 5.096 6.808 6.124 6.829 C 6.356 6.81 6.584 6.743 6.8 6.629 C 6.413 7.106 5.9 7.357 5.375 7.329 C 4.132 7.329 3.125 5.986 3.125 4.329 C 3.125 2.672 4.132 1.329 5.375 1.329 C 5.894 1.348 6.395 1.594 6.8 2.029 Z M 7.624 3.329 L 7.925 2.429 L 7.925 3.429 L 8.524 2.829 L 8.15 3.629 L 8.899 3.429 L 8.3 4.029 L 9.05 4.229 L 8.3 4.429 L 8.899 5.029 L 8.15 4.829 L 8.449 5.729 L 7.925 5.129 L 7.925 6.129 L 7.624 5.229 L 7.325 6.129 L 7.325 5.129 L 6.725 5.729 L 7.025 4.829 L 6.275 5.029 L 6.875 4.429 L 6.124 4.229 L 6.875 4.029 L 6.35 3.429 L 7.1 3.629 L 6.725 2.729 L 7.325 3.329 L 7.325 2.329 Z" fill-rule="evenodd" fill="url(#linear-gradient-4)" style=""/>
    </g>
  </g>
</svg>