<svg xmlns="http://www.w3.org/2000/svg" xmlns:xlink="http://www.w3.org/1999/xlink" width="640px" height="480px" viewBox="0 0 640 480" version="1.1">
  <g id="surface1">
    <rect x="0" y="0" width="640" height="480" style="fill:rgb(100%,100%,100%);fill-opacity:1;stroke:none;" />
    <path style=" stroke:none;fill-rule:nonzero;fill:rgb(0%,0%,0%);fill-opacity:1;" d="M 98.121094 145.699219 L 157.289062 45.855469 L 172.078125 56.949219 L 112.910156 156.796875 Z M 120.308594 162.34375 L 179.476562 62.496094 L 194.269531 73.589844 L 135.101562 173.4375 Z M 142.496094 178.984375 L 201.664062 79.136719 L 216.457031 90.230469 L 157.289062 190.078125 Z M 142.496094 178.984375 " />
    <path style=" stroke:none;fill-rule:nonzero;fill:rgb(0%,0%,0%);fill-opacity:1;" d="M 423.542969 389.769531 L 482.710938 289.921875 L 497.503906 301.015625 L 438.335938 400.863281 Z M 445.730469 406.410156 L 504.898438 306.5625 L 519.691406 317.65625 L 460.523438 417.503906 Z M 467.921875 423.050781 L 527.089844 323.203125 L 541.878906 334.300781 L 482.710938 434.144531 Z M 467.921875 423.050781 " />
    <path style="fill-rule:nonzero;fill:rgb(0%,0%,0%);fill-opacity:1;stroke-width:1;stroke-linecap:butt;stroke-linejoin:miter;stroke:rgb(100%,100%,100%);stroke-opacity:1;stroke-miterlimit:4;" d="M -0.000243772 16.999949 L -0.0000812672 26.999964 " transform="matrix(4.930668,-8.320503,7.396003,5.547002,320,240)" />
    <path style=" stroke:none;fill-rule:nonzero;fill:rgb(80.392157%,18.039216%,22.745098%);fill-opacity:1;" d="M 231.246094 173.4375 C 263.925781 118.292969 330.152344 103.390625 379.167969 140.152344 C 428.183594 176.917969 441.429688 251.421875 408.753906 306.5625 Z M 231.246094 173.4375 " />
    <path style=" stroke:none;fill-rule:nonzero;fill:rgb(0%,27.843137%,62.745098%);fill-opacity:1;" d="M 231.246094 173.4375 C 198.570312 228.578125 211.816406 303.082031 260.832031 339.847656 C 309.847656 376.609375 376.074219 361.707031 408.753906 306.5625 C 425.089844 278.992188 418.46875 241.738281 393.960938 223.359375 C 369.453125 204.976562 336.339844 212.429688 320 240 Z M 231.246094 173.4375 " />
    <path style=" stroke:none;fill-rule:nonzero;fill:rgb(80.392157%,18.039216%,22.745098%);fill-opacity:1;" d="M 305.207031 156.796875 C 329.714844 175.175781 336.339844 212.429688 320 240 C 303.660156 267.570312 270.546875 275.023438 246.039062 256.640625 C 221.53125 238.261719 214.910156 201.007812 231.246094 173.4375 C 247.585938 145.863281 280.699219 138.414062 305.207031 156.796875 Z M 305.207031 156.796875 " />
    <path style=" stroke:none;fill-rule:nonzero;fill:rgb(0%,0%,0%);fill-opacity:1;" d="M 157.289062 434.144531 L 98.121094 334.300781 L 112.910156 323.203125 L 172.078125 423.050781 Z M 179.476562 417.503906 L 120.308594 317.65625 L 135.101562 306.5625 L 194.269531 406.410156 Z M 201.664062 400.863281 L 142.496094 301.015625 L 157.289062 289.921875 L 216.457031 389.769531 Z M 201.664062 400.863281 " />
    <path style=" stroke:none;fill-rule:nonzero;fill:rgb(0%,0%,0%);fill-opacity:1;" d="M 482.710938 190.078125 L 423.542969 90.230469 L 438.335938 79.136719 L 497.503906 178.984375 Z M 504.898438 173.4375 L 445.730469 73.589844 L 460.523438 62.496094 L 519.691406 162.34375 Z M 527.089844 156.796875 L 467.921875 56.949219 L 482.710938 45.855469 L 541.878906 145.699219 Z M 527.089844 156.796875 " />
    <path style="fill-rule:nonzero;fill:rgb(0%,0%,0%);fill-opacity:1;stroke-width:1;stroke-linecap:butt;stroke-linejoin:miter;stroke:rgb(100%,100%,100%);stroke-opacity:1;stroke-miterlimit:4;" d="M -0.00016252 -23.499923 L -0.000162519 -20.499991 M 0.000243772 16.999949 L 0.000162519 20.499991 M 0.00016252 23.499923 L 0.000162522 26.499854 " transform="matrix(-4.930668,-8.320503,7.396003,-5.547002,320,240)" />
  </g>
</svg>